<?xml version="1.0" standalone="no"?>
<!DOCTYPE svg PUBLIC "-//W3C//DTD SVG 20010904//EN"
 "http://www.w3.org/TR/2001/REC-SVG-20010904/DTD/svg10.dtd">
<svg version="1.0" xmlns="http://www.w3.org/2000/svg"
 width="512.000000pt" height="512.000000pt" viewBox="0 0 512.000000 512.000000"
 preserveAspectRatio="xMidYMid meet">
<metadata>
Created by potrace 1.14, written by Peter Selinger 2001-2017
</metadata>
<g transform="translate(0.000000,512.000000) scale(0.100000,-0.100000)"
fill="#000000" stroke="none">
<path d="M2380 5117 c-3 -3 -42 -7 -87 -9 -45 -2 -85 -7 -88 -10 -4 -4 -17 -4
-30 -2 -13 2 -27 0 -30 -6 -4 -6 -10 -8 -14 -6 -4 3 -24 1 -44 -5 -21 -5 -51
-12 -67 -14 -16 -2 -56 -11 -87 -20 -32 -10 -65 -18 -73 -20 -65 -13 -246 -79
-358 -131 -39 -19 -75 -35 -80 -35 -4 -1 -23 -12 -42 -23 -19 -12 -53 -30 -75
-41 -22 -11 -45 -25 -51 -31 -7 -6 -26 -17 -43 -24 -17 -7 -31 -15 -31 -19 0
-4 -16 -15 -35 -25 -19 -11 -35 -23 -35 -28 0 -4 -5 -8 -11 -8 -7 0 -32 -16
-55 -36 -24 -19 -44 -33 -44 -30 0 5 -63 -49 -107 -91 -13 -12 -23 -20 -23
-17 0 8 -204 -200 -260 -266 -30 -36 -57 -67 -60 -70 -3 -3 -16 -22 -30 -42
-14 -21 -28 -38 -32 -38 -5 0 -8 -5 -8 -10 0 -10 -8 -22 -40 -59 -8 -9 -22
-30 -30 -46 -8 -17 -18 -32 -21 -35 -25 -21 -179 -324 -214 -421 -25 -69 -76
-222 -80 -240 -2 -8 -10 -39 -19 -69 -9 -29 -14 -56 -11 -58 3 -3 0 -11 -6
-19 -6 -7 -9 -13 -6 -13 3 0 -3 -37 -13 -81 -10 -45 -17 -90 -15 -100 2 -11 1
-19 -3 -19 -22 0 -23 -654 -1 -695 3 -5 4 -20 3 -33 0 -12 3 -22 8 -22 5 0 7
-4 3 -9 -3 -5 0 -31 6 -58 13 -58 17 -78 25 -123 4 -19 10 -42 15 -51 4 -9 10
-29 13 -45 12 -67 18 -84 28 -84 6 0 9 -3 5 -6 -3 -3 -1 -18 5 -33 5 -14 12
-37 15 -51 2 -13 8 -29 12 -35 4 -5 14 -26 21 -45 8 -19 27 -64 44 -100 16
-36 30 -67 30 -70 6 -31 162 -290 218 -362 17 -21 26 -38 21 -38 -4 0 -3 -4 3
-8 6 -4 42 -45 79 -92 82 -102 268 -287 367 -367 40 -32 74 -61 76 -65 2 -5 8
-8 14 -8 5 0 36 -20 68 -45 32 -25 63 -45 68 -45 6 0 12 -3 14 -8 8 -20 399
-222 429 -222 6 0 23 -6 37 -14 33 -18 273 -94 322 -102 8 -2 29 -5 47 -8 17
-3 50 -10 73 -16 22 -6 45 -8 50 -5 6 3 10 2 10 -4 0 -5 8 -10 18 -10 9 1 58
-3 107 -8 144 -13 620 -8 620 7 0 1 14 3 30 4 45 5 245 45 285 58 19 6 44 13
55 15 22 3 169 50 200 63 11 5 65 28 120 51 55 24 112 51 127 61 14 10 33 18
42 18 9 0 16 5 16 10 0 6 6 10 14 10 8 0 22 8 32 17 10 10 20 18 23 17 9 -2
201 119 238 151 10 8 56 45 103 82 95 76 148 128 320 319 45 49 110 141 110
154 0 6 4 10 8 10 4 0 16 15 27 33 10 17 22 34 26 37 4 3 24 34 45 70 21 36
44 71 51 78 7 7 13 19 13 27 0 7 4 15 9 17 17 6 136 235 167 322 25 70 42 126
38 126 -3 0 3 14 12 31 17 33 22 52 31 112 3 20 10 37 16 37 6 0 8 3 4 6 -3 3
1 27 8 52 15 52 24 99 30 152 2 19 7 49 11 65 9 35 8 561 -1 620 -3 22 -8 56
-10 75 -3 19 -11 69 -20 110 -8 41 -17 88 -20 104 -2 16 -9 43 -15 61 -6 18
-12 41 -14 52 -5 24 -59 186 -77 228 -6 17 -13 36 -15 42 -4 24 -164 337 -199
393 -19 30 -47 75 -62 100 -15 25 -40 57 -55 72 -16 15 -28 31 -28 35 0 4 -16
25 -35 46 -18 20 -32 37 -29 37 7 0 -88 100 -159 169 -33 31 -87 83 -121 116
-71 69 -130 119 -133 114 0 -2 -15 8 -32 24 -17 15 -35 27 -40 27 -6 0 -21 11
-35 25 -14 14 -28 25 -32 25 -4 0 -30 15 -58 33 -28 19 -80 49 -116 68 -36 19
-67 36 -70 39 -3 3 -16 10 -30 16 -14 7 -59 27 -100 46 -41 19 -86 38 -100 42
-14 4 -34 11 -45 16 -34 16 -195 69 -195 65 0 -2 -17 2 -39 9 -50 18 -211 51
-291 61 -14 1 -25 3 -25 5 0 9 -516 26 -525 17z"/>
</g>
</svg>
